<mxfile host="app.diagrams.net" modified="2024-02-19T02:59:13.258Z" agent="Mozilla/5.0 (Macintosh; Intel Mac OS X 10_15_7) AppleWebKit/537.36 (KHTML, like Gecko) Chrome/121.0.0.0 Safari/537.36" etag="-rs7DJmoTFiQHwwwT977" version="23.1.5" type="device">
  <diagram name="Page-1" id="eioqnSL_o5BMGdtj4Evg">
    <mxGraphModel dx="1593" dy="846" grid="1" gridSize="10" guides="1" tooltips="1" connect="1" arrows="1" fold="1" page="1" pageScale="1" pageWidth="850" pageHeight="1100" math="0" shadow="0">
      <root>
        <mxCell id="0" />
        <mxCell id="1" parent="0" />
        <mxCell id="b1-2_7Jcsd-Yd4c3ZWak-44" value="" style="rounded=0;whiteSpace=wrap;html=1;fillColor=none;" vertex="1" parent="1">
          <mxGeometry x="392" y="60" width="288" height="210" as="geometry" />
        </mxCell>
        <mxCell id="b1-2_7Jcsd-Yd4c3ZWak-42" value="" style="sketch=0;outlineConnect=0;gradientColor=none;html=1;whiteSpace=wrap;fontSize=12;fontStyle=0;shape=mxgraph.aws4.group;grIcon=mxgraph.aws4.group_aws_step_functions_workflow;strokeColor=#545B64;fillColor=none;verticalAlign=top;align=left;spacingLeft=30;fontColor=#545B64;dashed=0;" vertex="1" parent="1">
          <mxGeometry x="20" y="40" width="710" height="461.5" as="geometry" />
        </mxCell>
        <mxCell id="b1-2_7Jcsd-Yd4c3ZWak-1" value="" style="sketch=0;points=[[0,0,0],[0.25,0,0],[0.5,0,0],[0.75,0,0],[1,0,0],[0,1,0],[0.25,1,0],[0.5,1,0],[0.75,1,0],[1,1,0],[0,0.25,0],[0,0.5,0],[0,0.75,0],[1,0.25,0],[1,0.5,0],[1,0.75,0]];outlineConnect=0;fontColor=#232F3E;fillColor=#7AA116;strokeColor=#ffffff;dashed=0;verticalLabelPosition=bottom;verticalAlign=top;align=center;html=1;fontSize=12;fontStyle=0;aspect=fixed;shape=mxgraph.aws4.resourceIcon;resIcon=mxgraph.aws4.s3;" vertex="1" parent="1">
          <mxGeometry x="46" y="261" width="78" height="78" as="geometry" />
        </mxCell>
        <mxCell id="b1-2_7Jcsd-Yd4c3ZWak-3" value="" style="sketch=0;points=[[0,0,0],[0.25,0,0],[0.5,0,0],[0.75,0,0],[1,0,0],[0,1,0],[0.25,1,0],[0.5,1,0],[0.75,1,0],[1,1,0],[0,0.25,0],[0,0.5,0],[0,0.75,0],[1,0.25,0],[1,0.5,0],[1,0.75,0]];outlineConnect=0;fontColor=#232F3E;fillColor=#ED7100;strokeColor=#ffffff;dashed=0;verticalLabelPosition=bottom;verticalAlign=top;align=center;html=1;fontSize=12;fontStyle=0;aspect=fixed;shape=mxgraph.aws4.resourceIcon;resIcon=mxgraph.aws4.lambda;" vertex="1" parent="1">
          <mxGeometry x="196" y="331" width="78" height="78" as="geometry" />
        </mxCell>
        <mxCell id="b1-2_7Jcsd-Yd4c3ZWak-16" style="edgeStyle=orthogonalEdgeStyle;rounded=0;orthogonalLoop=1;jettySize=auto;html=1;exitX=1;exitY=0.5;exitDx=0;exitDy=0;exitPerimeter=0;" edge="1" parent="1" source="b1-2_7Jcsd-Yd4c3ZWak-4" target="b1-2_7Jcsd-Yd4c3ZWak-15">
          <mxGeometry relative="1" as="geometry">
            <Array as="points">
              <mxPoint x="508" y="389" />
              <mxPoint x="690" y="389" />
              <mxPoint x="690" y="249" />
            </Array>
          </mxGeometry>
        </mxCell>
        <mxCell id="b1-2_7Jcsd-Yd4c3ZWak-46" value="Welcome Email" style="edgeLabel;html=1;align=center;verticalAlign=middle;resizable=0;points=[];" vertex="1" connectable="0" parent="b1-2_7Jcsd-Yd4c3ZWak-16">
          <mxGeometry x="-0.4935" y="-2" relative="1" as="geometry">
            <mxPoint x="2" y="-3" as="offset" />
          </mxGeometry>
        </mxCell>
        <mxCell id="b1-2_7Jcsd-Yd4c3ZWak-4" value="" style="sketch=0;points=[[0,0,0],[0.25,0,0],[0.5,0,0],[0.75,0,0],[1,0,0],[0,1,0],[0.25,1,0],[0.5,1,0],[0.75,1,0],[1,1,0],[0,0.25,0],[0,0.5,0],[0,0.75,0],[1,0.25,0],[1,0.5,0],[1,0.75,0]];outlineConnect=0;fontColor=#232F3E;fillColor=#E7157B;strokeColor=#ffffff;dashed=0;verticalLabelPosition=bottom;verticalAlign=top;align=center;html=1;fontSize=12;fontStyle=0;aspect=fixed;shape=mxgraph.aws4.resourceIcon;resIcon=mxgraph.aws4.sns;" vertex="1" parent="1">
          <mxGeometry x="430" y="331" width="78" height="78" as="geometry" />
        </mxCell>
        <mxCell id="b1-2_7Jcsd-Yd4c3ZWak-6" value="Uploaded Object&lt;br&gt;NewUser prefix" style="text;html=1;align=center;verticalAlign=middle;resizable=0;points=[];autosize=1;strokeColor=none;fillColor=none;" vertex="1" parent="1">
          <mxGeometry x="30" y="339" width="110" height="40" as="geometry" />
        </mxCell>
        <mxCell id="b1-2_7Jcsd-Yd4c3ZWak-15" value="" style="sketch=0;outlineConnect=0;fontColor=#232F3E;gradientColor=none;fillColor=#232F3D;strokeColor=none;dashed=0;verticalLabelPosition=bottom;verticalAlign=top;align=center;html=1;fontSize=12;fontStyle=0;aspect=fixed;pointerEvents=1;shape=mxgraph.aws4.user;" vertex="1" parent="1">
          <mxGeometry x="750" y="210" width="78" height="78" as="geometry" />
        </mxCell>
        <mxCell id="b1-2_7Jcsd-Yd4c3ZWak-29" style="edgeStyle=orthogonalEdgeStyle;rounded=0;orthogonalLoop=1;jettySize=auto;html=1;" edge="1" parent="1" source="b1-2_7Jcsd-Yd4c3ZWak-22" target="b1-2_7Jcsd-Yd4c3ZWak-8">
          <mxGeometry relative="1" as="geometry" />
        </mxCell>
        <mxCell id="b1-2_7Jcsd-Yd4c3ZWak-22" value="" style="sketch=0;points=[[0,0,0],[0.25,0,0],[0.5,0,0],[0.75,0,0],[1,0,0],[0,1,0],[0.25,1,0],[0.5,1,0],[0.75,1,0],[1,1,0],[0,0.25,0],[0,0.5,0],[0,0.75,0],[1,0.25,0],[1,0.5,0],[1,0.75,0]];outlineConnect=0;fontColor=#232F3E;fillColor=#ED7100;strokeColor=#ffffff;dashed=0;verticalLabelPosition=bottom;verticalAlign=top;align=center;html=1;fontSize=12;fontStyle=0;aspect=fixed;shape=mxgraph.aws4.resourceIcon;resIcon=mxgraph.aws4.lambda;" vertex="1" parent="1">
          <mxGeometry x="196" y="183" width="78" height="78" as="geometry" />
        </mxCell>
        <mxCell id="b1-2_7Jcsd-Yd4c3ZWak-24" style="edgeStyle=orthogonalEdgeStyle;rounded=0;orthogonalLoop=1;jettySize=auto;html=1;entryX=0;entryY=0.75;entryDx=0;entryDy=0;entryPerimeter=0;" edge="1" parent="1" source="b1-2_7Jcsd-Yd4c3ZWak-1" target="b1-2_7Jcsd-Yd4c3ZWak-3">
          <mxGeometry relative="1" as="geometry" />
        </mxCell>
        <mxCell id="b1-2_7Jcsd-Yd4c3ZWak-25" style="edgeStyle=orthogonalEdgeStyle;rounded=0;orthogonalLoop=1;jettySize=auto;html=1;entryX=0;entryY=0.25;entryDx=0;entryDy=0;entryPerimeter=0;" edge="1" parent="1" source="b1-2_7Jcsd-Yd4c3ZWak-1" target="b1-2_7Jcsd-Yd4c3ZWak-22">
          <mxGeometry relative="1" as="geometry" />
        </mxCell>
        <mxCell id="b1-2_7Jcsd-Yd4c3ZWak-26" value="WelcomeEmail&lt;br&gt;Function" style="text;html=1;align=center;verticalAlign=middle;resizable=0;points=[];autosize=1;strokeColor=none;fillColor=none;" vertex="1" parent="1">
          <mxGeometry x="185" y="409" width="100" height="40" as="geometry" />
        </mxCell>
        <mxCell id="b1-2_7Jcsd-Yd4c3ZWak-27" value="CreateUser&lt;br&gt;Function" style="text;html=1;align=center;verticalAlign=middle;resizable=0;points=[];autosize=1;strokeColor=none;fillColor=none;" vertex="1" parent="1">
          <mxGeometry x="195" y="256" width="80" height="40" as="geometry" />
        </mxCell>
        <mxCell id="b1-2_7Jcsd-Yd4c3ZWak-30" style="edgeStyle=orthogonalEdgeStyle;rounded=0;orthogonalLoop=1;jettySize=auto;html=1;entryX=0;entryY=0.5;entryDx=0;entryDy=0;entryPerimeter=0;" edge="1" parent="1" source="b1-2_7Jcsd-Yd4c3ZWak-3" target="b1-2_7Jcsd-Yd4c3ZWak-4">
          <mxGeometry relative="1" as="geometry" />
        </mxCell>
        <mxCell id="b1-2_7Jcsd-Yd4c3ZWak-31" value="SNS Email Notification" style="text;html=1;align=center;verticalAlign=middle;resizable=0;points=[];autosize=1;strokeColor=none;fillColor=none;" vertex="1" parent="1">
          <mxGeometry x="400" y="408" width="140" height="30" as="geometry" />
        </mxCell>
        <mxCell id="b1-2_7Jcsd-Yd4c3ZWak-37" value="" style="group" vertex="1" connectable="0" parent="1">
          <mxGeometry x="580" y="163" width="70" height="81.44" as="geometry" />
        </mxCell>
        <mxCell id="b1-2_7Jcsd-Yd4c3ZWak-34" value="" style="sketch=0;outlineConnect=0;fontColor=#232F3E;gradientColor=none;fillColor=#232F3D;strokeColor=none;dashed=0;verticalLabelPosition=bottom;verticalAlign=top;align=center;html=1;fontSize=12;fontStyle=0;aspect=fixed;pointerEvents=1;shape=mxgraph.aws4.user;" vertex="1" parent="b1-2_7Jcsd-Yd4c3ZWak-37">
          <mxGeometry x="3.888888888888889" width="59.92754716981133" height="59.92754716981133" as="geometry" />
        </mxCell>
        <mxCell id="b1-2_7Jcsd-Yd4c3ZWak-36" value="users/groups" style="text;html=1;align=center;verticalAlign=middle;resizable=0;points=[];autosize=1;strokeColor=none;fillColor=none;" vertex="1" parent="b1-2_7Jcsd-Yd4c3ZWak-37">
          <mxGeometry x="-11.15" y="59.93094339622642" width="90" height="30" as="geometry" />
        </mxCell>
        <mxCell id="b1-2_7Jcsd-Yd4c3ZWak-39" value="" style="group" vertex="1" connectable="0" parent="1">
          <mxGeometry x="508" y="80" width="77.32" height="95.04454545454546" as="geometry" />
        </mxCell>
        <mxCell id="b1-2_7Jcsd-Yd4c3ZWak-49" value="" style="group" vertex="1" connectable="0" parent="b1-2_7Jcsd-Yd4c3ZWak-39">
          <mxGeometry width="77.32" height="95.04454545454546" as="geometry" />
        </mxCell>
        <mxCell id="b1-2_7Jcsd-Yd4c3ZWak-32" value="" style="outlineConnect=0;dashed=0;verticalLabelPosition=bottom;verticalAlign=top;align=center;html=1;shape=mxgraph.aws3.role;fillColor=#759C3E;gradientColor=none;" vertex="1" parent="b1-2_7Jcsd-Yd4c3ZWak-49">
          <mxGeometry width="77.32" height="65.04545454545455" as="geometry" />
        </mxCell>
        <mxCell id="b1-2_7Jcsd-Yd4c3ZWak-38" value="Roles" style="text;html=1;align=center;verticalAlign=middle;resizable=0;points=[];autosize=1;strokeColor=none;fillColor=none;" vertex="1" parent="b1-2_7Jcsd-Yd4c3ZWak-49">
          <mxGeometry x="13.664973544973545" y="65.04454545454546" width="50" height="30" as="geometry" />
        </mxCell>
        <mxCell id="b1-2_7Jcsd-Yd4c3ZWak-45" value="user" style="text;html=1;align=center;verticalAlign=middle;resizable=0;points=[];autosize=1;strokeColor=none;fillColor=none;" vertex="1" parent="1">
          <mxGeometry x="765" y="288" width="50" height="30" as="geometry" />
        </mxCell>
        <mxCell id="b1-2_7Jcsd-Yd4c3ZWak-48" value="" style="group" vertex="1" connectable="0" parent="1">
          <mxGeometry x="340" y="110" width="100" height="111" as="geometry" />
        </mxCell>
        <mxCell id="b1-2_7Jcsd-Yd4c3ZWak-10" value="" style="group" vertex="1" connectable="0" parent="b1-2_7Jcsd-Yd4c3ZWak-48">
          <mxGeometry width="100" height="111" as="geometry" />
        </mxCell>
        <mxCell id="b1-2_7Jcsd-Yd4c3ZWak-8" value="" style="outlineConnect=0;dashed=0;verticalLabelPosition=bottom;verticalAlign=top;align=center;html=1;shape=mxgraph.aws3.iam;fillColor=#759C3E;gradientColor=none;" vertex="1" parent="b1-2_7Jcsd-Yd4c3ZWak-10">
          <mxGeometry x="29" width="42" height="81" as="geometry" />
        </mxCell>
        <mxCell id="b1-2_7Jcsd-Yd4c3ZWak-47" value="IAM" style="text;html=1;align=center;verticalAlign=middle;resizable=0;points=[];autosize=1;strokeColor=none;fillColor=none;" vertex="1" parent="b1-2_7Jcsd-Yd4c3ZWak-48">
          <mxGeometry x="30" y="81" width="40" height="30" as="geometry" />
        </mxCell>
        <mxCell id="b1-2_7Jcsd-Yd4c3ZWak-50" value="" style="group" vertex="1" connectable="0" parent="1">
          <mxGeometry x="430" y="163" width="90" height="93" as="geometry" />
        </mxCell>
        <mxCell id="b1-2_7Jcsd-Yd4c3ZWak-41" value="" style="group" vertex="1" connectable="0" parent="b1-2_7Jcsd-Yd4c3ZWak-50">
          <mxGeometry width="90" height="93" as="geometry" />
        </mxCell>
        <mxCell id="b1-2_7Jcsd-Yd4c3ZWak-33" value="" style="outlineConnect=0;dashed=0;verticalLabelPosition=bottom;verticalAlign=top;align=center;html=1;shape=mxgraph.aws3.permissions_2;fillColor=#D2D3D3;gradientColor=none;" vertex="1" parent="b1-2_7Jcsd-Yd4c3ZWak-41">
          <mxGeometry x="21.75" width="46.5" height="63" as="geometry" />
        </mxCell>
        <mxCell id="b1-2_7Jcsd-Yd4c3ZWak-40" value="Permissions" style="text;html=1;align=center;verticalAlign=middle;resizable=0;points=[];autosize=1;strokeColor=none;fillColor=none;" vertex="1" parent="b1-2_7Jcsd-Yd4c3ZWak-50">
          <mxGeometry y="63" width="90" height="30" as="geometry" />
        </mxCell>
      </root>
    </mxGraphModel>
  </diagram>
</mxfile>
